<svg width="512" height="512" viewBox="0 0 512 512" fill="none" xmlns="http://www.w3.org/2000/svg">
  <path d="M315 100 C202 76 103 157 103 270 C103 380 193 430 282 421 C323 417 359 401 386 377" stroke="#ffffff" stroke-width="40" stroke-linecap="round"/>
  <path d="M350 111 C366 117 381 125 394 135" stroke="#ffffff" stroke-width="40" stroke-linecap="round"/>
  <path d="M414 158 C425 172 433 187 439 202" stroke="#ffffff" stroke-width="40" stroke-linecap="round"/>
  <path d="M447 231 C449 248 449 264 447 280" stroke="#ffffff" stroke-width="40" stroke-linecap="round"/>
  <path d="M438 309 C432 325 424 340 414 353" stroke="#ffffff" stroke-width="40" stroke-linecap="round"/>
  <path d="M192 264 L241 313 L342 207" stroke="#ffffff" stroke-width="44" stroke-linecap="round" stroke-linejoin="round"/>
</svg>
